<svg width="162" height="66" viewBox="0 0 162 66" fill="none" xmlns="http://www.w3.org/2000/svg">
    <path
        d="M1.44141 37V12.3906H4.5V33.9766H14.6602V37H1.44141ZM16.6289 31.7969V23.1133C16.6289 22.0117 17.1211 20.9336 18.1055 19.8789C19.3242 18.6133 20.8477 17.9805 22.6758 17.9805V20.8281C21.293 20.8281 20.332 21.4023 19.793 22.5508C19.6289 22.9023 19.5469 23.2539 19.5469 23.6055V31.3398C19.5469 32.207 19.9453 32.9453 20.7422 33.5547C21.3047 33.9766 21.9492 34.1875 22.6758 34.1875V37.0352C20.4492 37.0352 18.7266 36.1328 17.5078 34.3281C16.9219 33.4375 16.6289 32.5938 16.6289 31.7969ZM24.1875 37.0352V34.1875C25.4297 34.1875 26.3203 33.625 26.8594 32.5C27.0469 32.125 27.1406 31.7617 27.1406 31.4102V23.6055C27.1406 22.6445 26.7305 21.8828 25.9102 21.3203C25.3945 20.9922 24.8086 20.8281 24.1523 20.8281V17.9805C26.3086 17.9805 27.9727 18.8594 29.1445 20.6172C29.7305 21.4844 30.0234 22.3164 30.0234 23.1133V31.7969C30.0234 32.9453 29.5312 34.0586 28.5469 35.1367C27.3984 36.3789 25.9453 37.0117 24.1875 37.0352ZM32.168 22.4102V19.5273H34.4883V17.4883C34.4883 16.1758 34.9219 14.9805 35.7891 13.9023C36.75 12.7773 37.9922 12.2031 39.5156 12.1797H40.8164L40.1484 15.0273H39.4805C38.1445 15.0977 37.4648 15.918 37.4414 17.4883V19.5625L39.832 19.5273V22.4102H37.4414V37H34.4883V22.4102H32.168ZM41.8008 21.0391V18.1914H44.1211V12.1094H47.1094V18.1914H49.3594V21.0742H47.1094V31.1641C47.1094 32.8281 47.7891 33.7539 49.1484 33.9414C49.4062 33.9883 49.6641 34.0117 49.9219 34.0117H50.4141L51.082 37H49.8164C46.9336 36.9766 45.1641 35.8984 44.5078 33.7656C44.2734 32.9688 44.1562 31.9844 44.1562 30.8125L44.1211 21.0391H41.8008ZM52.6641 37V12.3906H55.7227V23.1133H58.8867V26.1016H55.7227V37H52.6641ZM60.6445 26.1016V23.1133H63.7734V12.3906H66.8672V37H63.7734V26.1016H60.6445ZM69.6094 31.7969V23.1133C69.6094 22.0117 70.1016 20.9336 71.0859 19.8789C72.3047 18.6133 73.8281 17.9805 75.6562 17.9805V20.8281C74.2734 20.8281 73.3125 21.4023 72.7734 22.5508C72.6094 22.9023 72.5273 23.2539 72.5273 23.6055V31.3398C72.5273 32.207 72.9258 32.9453 73.7227 33.5547C74.2852 33.9766 74.9297 34.1875 75.6562 34.1875V37.0352C73.4297 37.0352 71.707 36.1328 70.4883 34.3281C69.9023 33.4375 69.6094 32.5938 69.6094 31.7969ZM77.168 37.0352V34.1875C78.4102 34.1875 79.3008 33.625 79.8398 32.5C80.0273 32.125 80.1211 31.7617 80.1211 31.4102V23.6055C80.1211 22.6445 79.7109 21.8828 78.8906 21.3203C78.375 20.9922 77.7891 20.8281 77.1328 20.8281V17.9805C79.2891 17.9805 80.9531 18.8594 82.125 20.6172C82.7109 21.4844 83.0039 22.3164 83.0039 23.1133V31.7969C83.0039 32.9453 82.5117 34.0586 81.5273 35.1367C80.3789 36.3789 78.9258 37.0117 77.168 37.0352ZM85.6758 31.9375V18.0156H88.6641V31.5859C88.6641 32.4297 89.0859 33.1328 89.9297 33.6953C90.4922 34.0469 91.1133 34.2227 91.793 34.2227V37.1758C89.543 37.1758 87.8086 36.2969 86.5898 34.5391C85.9805 33.6484 85.6758 32.7812 85.6758 31.9375ZM93.3398 37.1758V34.2227C94.6055 34.2227 95.5312 33.7188 96.1172 32.7109C96.3281 32.3359 96.4336 31.9609 96.4336 31.5859V18.0156H99.4219V31.9375C99.4219 33.0391 98.918 34.1289 97.9102 35.207C96.6914 36.4961 95.168 37.1523 93.3398 37.1758ZM101.461 32.0078L104.238 31.4805C104.238 32.5352 104.789 33.3672 105.891 33.9766C106.43 34.2344 106.945 34.375 107.438 34.3984V37.1758C105.164 37.1758 103.465 36.3555 102.34 34.7148C101.754 33.8477 101.461 32.9453 101.461 32.0078ZM101.637 23.3594C101.637 21.2266 102.609 19.6445 104.555 18.6133C105.492 18.1211 106.43 17.875 107.367 17.875V20.6172C106.289 20.6172 105.457 21.0625 104.871 21.9531C104.566 22.3984 104.414 22.8672 104.414 23.3594C104.414 24.1094 105 24.7188 106.172 25.1875C107.062 25.5625 108.785 26.0547 111.34 26.6641C112.934 26.9922 114.07 27.7773 114.75 29.0195C115.102 29.6758 115.277 30.4141 115.277 31.2344C115.277 33.4844 114.375 35.1484 112.57 36.2266C111.516 36.8594 110.309 37.1758 108.949 37.1758V34.3984C110.027 34.3984 110.93 34.0234 111.656 33.2734C112.172 32.7344 112.43 32.1016 112.43 31.375C112.43 30.4375 111.504 29.6875 109.652 29.125C109.184 28.9844 108.434 28.7852 107.402 28.5273C106.301 28.2695 105.504 28.0586 105.012 27.8945C103.23 27.1914 102.152 26.125 101.777 24.6953C101.684 24.2734 101.637 23.8281 101.637 23.3594ZM108.914 20.6523V17.875C110.93 17.875 112.559 18.625 113.801 20.125C114.574 21.0859 114.961 22.0938 114.961 23.1484L112.184 23.6055C112.184 22.3164 111.48 21.4141 110.074 20.8984C109.652 20.7344 109.266 20.6523 108.914 20.6523ZM117.352 31.7969V23.0781C117.375 22 117.891 20.9336 118.898 19.8789C120.117 18.6367 121.594 18.0039 123.328 17.9805V20.7578C122.203 20.7578 121.324 21.25 120.691 22.2344C120.434 22.6562 120.305 23.043 120.305 23.3945V25.7852H128.18V23.3945C128.18 22.3398 127.641 21.5664 126.562 21.0742C126.07 20.8398 125.566 20.7227 125.051 20.7227V17.9805C126.668 17.9805 128.109 18.5547 129.375 19.7031C130.43 20.7109 130.969 21.8242 130.992 23.043V28.6328H120.305V31.7969C120.305 32.4531 120.68 33.0625 121.43 33.625C122.039 34.0469 122.684 34.2578 123.363 34.2578V37C121.23 37 119.555 36.1328 118.336 34.3984C117.68 33.4844 117.352 32.6172 117.352 31.7969ZM125.051 37V34.2227C126.457 34.2227 127.512 33.6133 128.215 32.3945C128.355 32.1367 128.461 31.8906 128.531 31.6562L131.027 32.5703C130.605 34.1875 129.645 35.4062 128.145 36.2266C127.184 36.7422 126.152 37 125.051 37Z"
        fill="white" />
    <path
        d="M1.068 63V54.48H4.668C5.036 54.48 5.372 54.556 5.676 54.708C5.98 54.86 6.244 55.068 6.468 55.332C6.7 55.588 6.876 55.876 6.996 56.196C7.124 56.508 7.188 56.828 7.188 57.156C7.188 57.564 7.108 57.948 6.948 58.308C6.796 58.668 6.576 58.972 6.288 59.22C6.008 59.468 5.676 59.632 5.292 59.712L7.38 63H6.432L4.428 59.856H1.908V63H1.068ZM1.908 59.112H4.692C5.028 59.112 5.32 59.02 5.568 58.836C5.816 58.652 6.008 58.412 6.144 58.116C6.28 57.812 6.348 57.492 6.348 57.156C6.348 56.812 6.268 56.496 6.108 56.208C5.956 55.912 5.748 55.676 5.484 55.5C5.228 55.316 4.94 55.224 4.62 55.224H1.908V59.112ZM16.0718 62.256V63H10.3478V54.48H15.9638V55.224H11.1878V58.296H15.3518V59.004H11.1878V62.256H16.0718ZM24.0335 56.076C23.9135 55.94 23.7735 55.82 23.6135 55.716C23.4535 55.604 23.2735 55.508 23.0735 55.428C22.8735 55.348 22.6575 55.284 22.4255 55.236C22.2015 55.188 21.9615 55.164 21.7055 55.164C20.9615 55.164 20.4135 55.308 20.0615 55.596C19.7175 55.876 19.5455 56.26 19.5455 56.748C19.5455 57.084 19.6255 57.348 19.7855 57.54C19.9535 57.732 20.2135 57.888 20.5655 58.008C20.9175 58.128 21.3655 58.252 21.9095 58.38C22.5175 58.508 23.0415 58.66 23.4815 58.836C23.9215 59.012 24.2615 59.252 24.5015 59.556C24.7415 59.852 24.8615 60.256 24.8615 60.768C24.8615 61.16 24.7855 61.5 24.6335 61.788C24.4815 62.076 24.2695 62.316 23.9975 62.508C23.7255 62.7 23.4015 62.844 23.0255 62.94C22.6495 63.028 22.2375 63.072 21.7895 63.072C21.3495 63.072 20.9255 63.028 20.5175 62.94C20.1175 62.844 19.7375 62.708 19.3775 62.532C19.0175 62.348 18.6815 62.116 18.3695 61.836L18.7895 61.152C18.9415 61.312 19.1215 61.464 19.3295 61.608C19.5455 61.744 19.7815 61.868 20.0375 61.98C20.3015 62.092 20.5815 62.18 20.8775 62.244C21.1815 62.3 21.4935 62.328 21.8135 62.328C22.4935 62.328 23.0215 62.204 23.3975 61.956C23.7815 61.708 23.9735 61.34 23.9735 60.852C23.9735 60.5 23.8775 60.22 23.6855 60.012C23.4935 59.796 23.2055 59.62 22.8215 59.484C22.4375 59.348 21.9655 59.216 21.4055 59.088C20.8135 58.952 20.3135 58.8 19.9055 58.632C19.4975 58.464 19.1895 58.244 18.9815 57.972C18.7815 57.692 18.6815 57.324 18.6815 56.868C18.6815 56.34 18.8095 55.896 19.0655 55.536C19.3295 55.168 19.6895 54.892 20.1455 54.708C20.6015 54.516 21.1255 54.42 21.7175 54.42C22.0935 54.42 22.4415 54.46 22.7615 54.54C23.0895 54.612 23.3895 54.72 23.6615 54.864C23.9415 55.008 24.2015 55.188 24.4415 55.404L24.0335 56.076ZM27.7825 63V54.48H28.6225V63H27.7825ZM32.1991 63V54.48H35.0911C35.9951 54.48 36.7471 54.672 37.3471 55.056C37.9551 55.432 38.4111 55.944 38.7151 56.592C39.0191 57.232 39.1711 57.944 39.1711 58.728C39.1711 59.592 39.0031 60.344 38.6671 60.984C38.3391 61.624 37.8671 62.12 37.2511 62.472C36.6431 62.824 35.9231 63 35.0911 63H32.1991ZM38.3311 58.728C38.3311 58.048 38.2031 57.444 37.9471 56.916C37.6991 56.388 37.3351 55.976 36.8551 55.68C36.3751 55.376 35.7871 55.224 35.0911 55.224H33.0391V62.256H35.0911C35.7951 62.256 36.3871 62.1 36.8671 61.788C37.3471 61.476 37.7111 61.056 37.9591 60.528C38.2071 59.992 38.3311 59.392 38.3311 58.728ZM47.9412 62.256V63H42.2172V54.48H47.8332V55.224H43.0572V58.296H47.2212V59.004H43.0572V62.256H47.9412ZM51.8097 56.028V63H50.9697V54.48H51.6657L57.2577 61.584V54.492H58.0977V63H57.3177L51.8097 56.028ZM67.7273 55.224H64.6913V63H63.8513V55.224H60.8153V54.48H67.7273V55.224ZM70.4435 63V54.48H71.2835V63H70.4435ZM77.5 54.48H78.208L81.748 63H80.86L79.756 60.336H75.928L74.836 63H73.936L77.5 54.48ZM79.564 59.676L77.848 55.464L76.108 59.676H79.564ZM84.4094 63V54.48H85.2494V62.256H90.1694V63H84.4094ZM96.4285 58.68C96.4285 58.16 96.5165 57.652 96.6925 57.156C96.8765 56.652 97.1405 56.196 97.4845 55.788C97.8285 55.372 98.2525 55.044 98.7565 54.804C99.2605 54.556 99.8325 54.432 100.473 54.432C101.233 54.432 101.881 54.608 102.417 54.96C102.961 55.304 103.361 55.748 103.617 56.292L102.957 56.7C102.773 56.324 102.541 56.028 102.261 55.812C101.981 55.588 101.681 55.428 101.361 55.332C101.049 55.236 100.737 55.188 100.425 55.188C99.9125 55.188 99.4605 55.292 99.0685 55.5C98.6765 55.7 98.3445 55.972 98.0725 56.316C97.8085 56.652 97.6085 57.032 97.4725 57.456C97.3365 57.872 97.2685 58.296 97.2685 58.728C97.2685 59.2 97.3485 59.652 97.5085 60.084C97.6685 60.516 97.8925 60.9 98.1805 61.236C98.4685 61.564 98.8045 61.828 99.1885 62.028C99.5805 62.22 100.005 62.316 100.461 62.316C100.781 62.316 101.109 62.26 101.445 62.148C101.781 62.036 102.093 61.864 102.381 61.632C102.677 61.4 102.913 61.1 103.089 60.732L103.785 61.092C103.609 61.516 103.337 61.876 102.969 62.172C102.601 62.468 102.189 62.692 101.733 62.844C101.285 62.996 100.845 63.072 100.413 63.072C99.8285 63.072 99.2925 62.948 98.8045 62.7C98.3165 62.444 97.8925 62.108 97.5325 61.692C97.1805 61.268 96.9085 60.796 96.7165 60.276C96.5245 59.748 96.4285 59.216 96.4285 58.68ZM109.997 63.06C109.397 63.06 108.853 62.94 108.365 62.7C107.877 62.46 107.457 62.136 107.105 61.728C106.753 61.312 106.481 60.848 106.289 60.336C106.097 59.816 106.001 59.284 106.001 58.74C106.001 58.172 106.101 57.632 106.301 57.12C106.501 56.6 106.781 56.14 107.141 55.74C107.509 55.332 107.937 55.012 108.425 54.78C108.913 54.54 109.441 54.42 110.009 54.42C110.609 54.42 111.153 54.544 111.641 54.792C112.129 55.04 112.545 55.372 112.889 55.788C113.241 56.204 113.513 56.668 113.705 57.18C113.897 57.692 113.993 58.216 113.993 58.752C113.993 59.32 113.893 59.864 113.693 60.384C113.493 60.896 113.213 61.356 112.853 61.764C112.493 62.164 112.069 62.48 111.581 62.712C111.093 62.944 110.565 63.06 109.997 63.06ZM106.841 58.74C106.841 59.204 106.917 59.652 107.069 60.084C107.221 60.508 107.437 60.888 107.717 61.224C107.997 61.552 108.329 61.816 108.713 62.016C109.105 62.208 109.533 62.304 109.997 62.304C110.485 62.304 110.921 62.204 111.305 62.004C111.697 61.796 112.029 61.524 112.301 61.188C112.581 60.844 112.793 60.46 112.937 60.036C113.081 59.612 113.153 59.18 113.153 58.74C113.153 58.276 113.077 57.832 112.925 57.408C112.773 56.984 112.553 56.604 112.265 56.268C111.985 55.932 111.653 55.668 111.269 55.476C110.885 55.284 110.461 55.188 109.997 55.188C109.517 55.188 109.081 55.288 108.689 55.488C108.305 55.688 107.973 55.96 107.693 56.304C107.421 56.64 107.209 57.02 107.057 57.444C106.913 57.868 106.841 58.3 106.841 58.74ZM124.565 63V56.064L121.481 61.452H120.953L117.857 56.064V63H117.017V54.48H117.881L121.205 60.312L124.553 54.48H125.405V63H124.565ZM128.98 63V54.48H132.508C132.876 54.48 133.212 54.556 133.516 54.708C133.828 54.86 134.096 55.068 134.32 55.332C134.544 55.588 134.72 55.876 134.848 56.196C134.976 56.508 135.04 56.828 135.04 57.156C135.04 57.62 134.936 58.06 134.728 58.476C134.528 58.884 134.244 59.216 133.876 59.472C133.508 59.728 133.076 59.856 132.58 59.856H129.82V63H128.98ZM129.82 59.112H132.544C132.88 59.112 133.172 59.02 133.42 58.836C133.668 58.652 133.86 58.412 133.996 58.116C134.132 57.82 134.2 57.5 134.2 57.156C134.2 56.804 134.12 56.48 133.96 56.184C133.8 55.888 133.588 55.656 133.324 55.488C133.068 55.312 132.784 55.224 132.472 55.224H129.82V59.112ZM137.885 63V54.48H138.725V62.256H143.645V63H137.885ZM152.045 62.256V63H146.321V54.48H151.937V55.224H147.161V58.296H151.325V59.004H147.161V62.256H152.045ZM155.026 54.48L157.81 58.188L160.582 54.48H161.53L158.266 58.8L161.434 63H160.486L157.81 59.412L155.122 63H154.162L157.33 58.8L154.066 54.48H155.026Z"
        fill="white" />
</svg>